<?xml version="1.0" encoding="UTF-8" standalone="no"?> <svg fill="#f97316" id="Layer_1" data-name="Layer 1" xmlns="http://www.w3.org/2000/svg" viewBox="0 0 64 64"><path d="M21,34.5V49a1,1,0,0,0,1,1H42a1,1,0,0,0,1-1V34.5A6.508,6.508,0,0,0,36.5,28h-9A6.508,6.508,0,0,0,21,34.5Zm2,0A4.505,4.505,0,0,1,27.5,30h3.057l-2.494,6.649a1,1,0,0,0,.137.951l3,4a1,1,0,0,0,1.6,0l3-4a1,1,0,0,0,.137-.951L33.443,30H36.5A4.505,4.505,0,0,1,41,34.5V48H23Zm9-2.652,1.871,4.99L32,39.333l-1.871-2.495Z"/><path d="M39.1,18.638a1,1,0,0,0-.807-.681l-3.626-.527-1.621-3.285a1.041,1.041,0,0,0-1.794,0L29.628,17.43,26,17.957a1,1,0,0,0-.554,1.706l2.623,2.557-.619,3.611A1,1,0,0,0,28.9,26.885l3.243-1.705,3.243,1.705a1,1,0,0,0,1.451-1.054l-.62-3.611,2.624-2.557A1,1,0,0,0,39.1,18.638Zm-4.649,2.517a1,1,0,0,0-.288.885l.366,2.132-1.915-1.007a1,1,0,0,0-.93,0l-1.915,1.007.366-2.132a1,1,0,0,0-.288-.885L28.3,19.645l2.141-.311a1,1,0,0,0,.753-.547l.957-1.94.957,1.94a1,1,0,0,0,.753.547L36,19.645Z"/><path d="M7.463,47.466A29.007,29.007,0,0,1,46.5,6.879l1-1.731A31.006,31.006,0,0,0,5.773,48.534Z"/><path d="M55.9,15.567A29,29,0,0,1,16.534,56.536l-1.069,1.691a31,31,0,0,0,42.08-43.794Z"/><path d="M51.917,12.946a.091.091,0,0,0,.166,0,4.527,4.527,0,0,1,2.863-2.863.091.091,0,0,0,0-.166,4.527,4.527,0,0,1-2.863-2.863.091.091,0,0,0-.166,0,4.527,4.527,0,0,1-2.863,2.863.091.091,0,0,0,0,.166A4.527,4.527,0,0,1,51.917,12.946Z"/><path d="M11.083,55.946a4.527,4.527,0,0,1,2.863-2.863.091.091,0,0,0,0-.166,4.527,4.527,0,0,1-2.863-2.863.091.091,0,0,0-.166,0,4.527,4.527,0,0,1-2.863,2.863.091.091,0,0,0,0,.166,4.527,4.527,0,0,1,2.863,2.863A.091.091,0,0,0,11.083,55.946Z"/></svg>