<?xml version="1.0" encoding="utf-8"?>
<!-- Generator: Adobe Illustrator 23.0.3, SVG Export Plug-In . SVG Version: 6.00 Build 0)  -->
<svg  version="1.1" id="Icons" xmlns="http://www.w3.org/2000/svg" xmlns:xlink="http://www.w3.org/1999/xlink" x="0px" y="0px"
	 viewBox="0 0 32 32" style="enable-background:new 0 0 32 32;" xml:space="preserve">
<style type="text/css">
	.st0{fill:none;stroke:#f97316;stroke-width:2;stroke-linecap:round;stroke-linejoin:round;stroke-miterlimit:10;}
</style>
<path class="st0" d="M23,15c-1.2,0-2.4,0.4-3.3,1h-7.4c-0.9-0.6-2.1-1-3.3-1c-3.3,0-6,2.7-6,6s2.7,6,6,6c1.2,0,2.4-0.4,3.3-1h7.4
	c0.9,0.6,2.1,1,3.3,1c3.3,0,6-2.7,6-6S26.3,15,23,15z"/>
<line class="st0" x1="9" y1="19" x2="9" y2="23"/>
<line class="st0" x1="7" y1="21" x2="11" y2="21"/>
<line class="st0" x1="23" y1="19" x2="23" y2="19"/>
<line class="st0" x1="21" y1="21" x2="21" y2="21"/>
<line class="st0" x1="25" y1="21" x2="25" y2="21"/>
<line class="st0" x1="23" y1="23" x2="23" y2="23"/>
<path class="st0" d="M16,16v-2c0-2.2-1.8-4-4-4H9c-2.2,0-4-1.8-4-4V3"/>
</svg>
